<mxfile host="app.diagrams.net" modified="2023-04-16T13:46:24.151Z" agent="Mozilla/5.0 (Windows NT 10.0; Win64; x64) AppleWebKit/537.36 (KHTML, like Gecko) Chrome/111.0.0.0 Safari/537.36" etag="1rAUuLTCmjF85fIMBtQH" version="21.1.8" type="github">
  <diagram name="第 1 页" id="yvMRvvzwFBnm490DFMN7">
    <mxGraphModel dx="724" dy="385" grid="1" gridSize="10" guides="1" tooltips="1" connect="1" arrows="1" fold="1" page="1" pageScale="1" pageWidth="827" pageHeight="1169" math="0" shadow="0">
      <root>
        <mxCell id="0" />
        <mxCell id="1" parent="0" />
        <mxCell id="Mk_51du70GMUBHQP6ZVv-5" value="2" style="ellipse;whiteSpace=wrap;html=1;" parent="1" vertex="1">
          <mxGeometry x="300" y="140" width="40" height="40" as="geometry" />
        </mxCell>
        <mxCell id="Mk_51du70GMUBHQP6ZVv-6" value="1" style="ellipse;whiteSpace=wrap;html=1;" parent="1" vertex="1">
          <mxGeometry x="130" y="110" width="40" height="40" as="geometry" />
        </mxCell>
        <mxCell id="Mk_51du70GMUBHQP6ZVv-11" style="edgeStyle=orthogonalEdgeStyle;rounded=0;orthogonalLoop=1;jettySize=auto;html=1;entryX=0.5;entryY=1;entryDx=0;entryDy=0;" parent="1" source="Mk_51du70GMUBHQP6ZVv-7" target="Mk_51du70GMUBHQP6ZVv-6" edge="1">
          <mxGeometry relative="1" as="geometry">
            <mxPoint x="110" y="120" as="targetPoint" />
            <Array as="points" />
          </mxGeometry>
        </mxCell>
        <mxCell id="Mk_51du70GMUBHQP6ZVv-13" value="50%" style="edgeLabel;html=1;align=center;verticalAlign=middle;resizable=0;points=[];" parent="Mk_51du70GMUBHQP6ZVv-11" vertex="1" connectable="0">
          <mxGeometry x="-0.3534" y="-2" relative="1" as="geometry">
            <mxPoint as="offset" />
          </mxGeometry>
        </mxCell>
        <mxCell id="Mk_51du70GMUBHQP6ZVv-12" style="edgeStyle=orthogonalEdgeStyle;rounded=0;orthogonalLoop=1;jettySize=auto;html=1;entryX=1;entryY=1;entryDx=0;entryDy=0;" parent="1" source="Mk_51du70GMUBHQP6ZVv-7" target="Mk_51du70GMUBHQP6ZVv-9" edge="1">
          <mxGeometry relative="1" as="geometry">
            <Array as="points">
              <mxPoint x="44" y="200" />
            </Array>
          </mxGeometry>
        </mxCell>
        <mxCell id="Mk_51du70GMUBHQP6ZVv-16" value="30%&lt;br&gt;" style="edgeLabel;html=1;align=center;verticalAlign=middle;resizable=0;points=[];" parent="Mk_51du70GMUBHQP6ZVv-12" vertex="1" connectable="0">
          <mxGeometry x="0.131" y="2" relative="1" as="geometry">
            <mxPoint x="14" y="8" as="offset" />
          </mxGeometry>
        </mxCell>
        <mxCell id="Mk_51du70GMUBHQP6ZVv-14" style="edgeStyle=orthogonalEdgeStyle;rounded=0;orthogonalLoop=1;jettySize=auto;html=1;entryX=0;entryY=0.5;entryDx=0;entryDy=0;" parent="1" source="Mk_51du70GMUBHQP6ZVv-7" target="Mk_51du70GMUBHQP6ZVv-8" edge="1">
          <mxGeometry relative="1" as="geometry" />
        </mxCell>
        <mxCell id="Mk_51du70GMUBHQP6ZVv-17" style="edgeStyle=orthogonalEdgeStyle;rounded=0;orthogonalLoop=1;jettySize=auto;html=1;entryX=0.5;entryY=1;entryDx=0;entryDy=0;" parent="1" source="Mk_51du70GMUBHQP6ZVv-7" target="Mk_51du70GMUBHQP6ZVv-5" edge="1">
          <mxGeometry relative="1" as="geometry" />
        </mxCell>
        <mxCell id="Mk_51du70GMUBHQP6ZVv-18" value="10%" style="edgeLabel;html=1;align=center;verticalAlign=middle;resizable=0;points=[];" parent="Mk_51du70GMUBHQP6ZVv-17" vertex="1" connectable="0">
          <mxGeometry x="0.25" relative="1" as="geometry">
            <mxPoint as="offset" />
          </mxGeometry>
        </mxCell>
        <mxCell id="Mk_51du70GMUBHQP6ZVv-7" value="0" style="ellipse;whiteSpace=wrap;html=1;" parent="1" vertex="1">
          <mxGeometry x="130" y="180" width="40" height="40" as="geometry" />
        </mxCell>
        <mxCell id="Mk_51du70GMUBHQP6ZVv-8" value="3" style="ellipse;whiteSpace=wrap;html=1;" parent="1" vertex="1">
          <mxGeometry x="240" y="20" width="40" height="40" as="geometry" />
        </mxCell>
        <mxCell id="Mk_51du70GMUBHQP6ZVv-9" value="4" style="ellipse;whiteSpace=wrap;html=1;" parent="1" vertex="1">
          <mxGeometry x="10" y="175" width="40" height="40" as="geometry" />
        </mxCell>
        <mxCell id="Mk_51du70GMUBHQP6ZVv-15" value="10%" style="text;html=1;align=center;verticalAlign=middle;resizable=0;points=[];autosize=1;strokeColor=none;fillColor=none;" parent="1" vertex="1">
          <mxGeometry x="155" y="95" width="50" height="30" as="geometry" />
        </mxCell>
        <mxCell id="Mk_51du70GMUBHQP6ZVv-19" value="" style="rounded=0;whiteSpace=wrap;html=1;" parent="1" vertex="1">
          <mxGeometry x="420" y="20" width="410" height="340" as="geometry" />
        </mxCell>
        <mxCell id="Mk_51du70GMUBHQP6ZVv-20" value="" style="rounded=0;whiteSpace=wrap;html=1;" parent="1" vertex="1">
          <mxGeometry x="460" y="290" width="40" height="40" as="geometry" />
        </mxCell>
        <mxCell id="Mk_51du70GMUBHQP6ZVv-22" value="" style="rounded=0;whiteSpace=wrap;html=1;" parent="1" vertex="1">
          <mxGeometry x="520" y="290" width="40" height="40" as="geometry" />
        </mxCell>
        <mxCell id="Mk_51du70GMUBHQP6ZVv-23" value="" style="rounded=0;whiteSpace=wrap;html=1;" parent="1" vertex="1">
          <mxGeometry x="580" y="290" width="40" height="40" as="geometry" />
        </mxCell>
        <mxCell id="Mk_51du70GMUBHQP6ZVv-24" value="" style="rounded=0;whiteSpace=wrap;html=1;" parent="1" vertex="1">
          <mxGeometry x="640" y="290" width="40" height="40" as="geometry" />
        </mxCell>
        <mxCell id="Mk_51du70GMUBHQP6ZVv-25" value="" style="rounded=0;whiteSpace=wrap;html=1;" parent="1" vertex="1">
          <mxGeometry x="700" y="290" width="40" height="40" as="geometry" />
        </mxCell>
        <mxCell id="Mk_51du70GMUBHQP6ZVv-26" value="" style="rounded=0;whiteSpace=wrap;html=1;" parent="1" vertex="1">
          <mxGeometry x="760" y="290" width="40" height="40" as="geometry" />
        </mxCell>
        <mxCell id="Mk_51du70GMUBHQP6ZVv-29" value="" style="rounded=0;whiteSpace=wrap;html=1;" parent="1" vertex="1">
          <mxGeometry x="460" y="230" width="40" height="40" as="geometry" />
        </mxCell>
        <mxCell id="Mk_51du70GMUBHQP6ZVv-30" value="" style="rounded=0;whiteSpace=wrap;html=1;" parent="1" vertex="1">
          <mxGeometry x="520" y="230" width="40" height="40" as="geometry" />
        </mxCell>
        <mxCell id="Mk_51du70GMUBHQP6ZVv-31" value="" style="rounded=0;whiteSpace=wrap;html=1;" parent="1" vertex="1">
          <mxGeometry x="580" y="230" width="40" height="40" as="geometry" />
        </mxCell>
        <mxCell id="Mk_51du70GMUBHQP6ZVv-32" value="" style="rounded=0;whiteSpace=wrap;html=1;" parent="1" vertex="1">
          <mxGeometry x="640" y="230" width="40" height="40" as="geometry" />
        </mxCell>
        <mxCell id="Mk_51du70GMUBHQP6ZVv-33" value="" style="rounded=0;whiteSpace=wrap;html=1;" parent="1" vertex="1">
          <mxGeometry x="700" y="230" width="40" height="40" as="geometry" />
        </mxCell>
        <mxCell id="Mk_51du70GMUBHQP6ZVv-34" value="" style="rounded=0;whiteSpace=wrap;html=1;" parent="1" vertex="1">
          <mxGeometry x="760" y="230" width="40" height="40" as="geometry" />
        </mxCell>
        <mxCell id="Mk_51du70GMUBHQP6ZVv-35" value="" style="rounded=0;whiteSpace=wrap;html=1;" parent="1" vertex="1">
          <mxGeometry x="460" y="170" width="40" height="40" as="geometry" />
        </mxCell>
        <mxCell id="Mk_51du70GMUBHQP6ZVv-36" value="" style="rounded=0;whiteSpace=wrap;html=1;" parent="1" vertex="1">
          <mxGeometry x="520" y="170" width="40" height="40" as="geometry" />
        </mxCell>
        <mxCell id="Mk_51du70GMUBHQP6ZVv-37" value="" style="rounded=0;whiteSpace=wrap;html=1;" parent="1" vertex="1">
          <mxGeometry x="580" y="170" width="40" height="40" as="geometry" />
        </mxCell>
        <mxCell id="Mk_51du70GMUBHQP6ZVv-38" value="" style="rounded=0;whiteSpace=wrap;html=1;" parent="1" vertex="1">
          <mxGeometry x="640" y="170" width="40" height="40" as="geometry" />
        </mxCell>
        <mxCell id="Mk_51du70GMUBHQP6ZVv-39" value="" style="rounded=0;whiteSpace=wrap;html=1;" parent="1" vertex="1">
          <mxGeometry x="700" y="170" width="40" height="40" as="geometry" />
        </mxCell>
        <mxCell id="Mk_51du70GMUBHQP6ZVv-40" value="" style="rounded=0;whiteSpace=wrap;html=1;" parent="1" vertex="1">
          <mxGeometry x="760" y="170" width="40" height="40" as="geometry" />
        </mxCell>
        <mxCell id="Mk_51du70GMUBHQP6ZVv-41" value="" style="rounded=0;whiteSpace=wrap;html=1;" parent="1" vertex="1">
          <mxGeometry x="460" y="110" width="40" height="40" as="geometry" />
        </mxCell>
        <mxCell id="Mk_51du70GMUBHQP6ZVv-42" value="" style="rounded=0;whiteSpace=wrap;html=1;" parent="1" vertex="1">
          <mxGeometry x="520" y="110" width="40" height="40" as="geometry" />
        </mxCell>
        <mxCell id="Mk_51du70GMUBHQP6ZVv-43" value="" style="rounded=0;whiteSpace=wrap;html=1;" parent="1" vertex="1">
          <mxGeometry x="580" y="110" width="40" height="40" as="geometry" />
        </mxCell>
        <mxCell id="Mk_51du70GMUBHQP6ZVv-44" value="" style="rounded=0;whiteSpace=wrap;html=1;" parent="1" vertex="1">
          <mxGeometry x="640" y="110" width="40" height="40" as="geometry" />
        </mxCell>
        <mxCell id="Mk_51du70GMUBHQP6ZVv-45" value="" style="rounded=0;whiteSpace=wrap;html=1;" parent="1" vertex="1">
          <mxGeometry x="700" y="110" width="40" height="40" as="geometry" />
        </mxCell>
        <mxCell id="Mk_51du70GMUBHQP6ZVv-46" value="" style="rounded=0;whiteSpace=wrap;html=1;" parent="1" vertex="1">
          <mxGeometry x="760" y="110" width="40" height="40" as="geometry" />
        </mxCell>
        <mxCell id="Mk_51du70GMUBHQP6ZVv-47" value="" style="rounded=0;whiteSpace=wrap;html=1;" parent="1" vertex="1">
          <mxGeometry x="460" y="55" width="40" height="40" as="geometry" />
        </mxCell>
        <mxCell id="Mk_51du70GMUBHQP6ZVv-48" value="" style="rounded=0;whiteSpace=wrap;html=1;" parent="1" vertex="1">
          <mxGeometry x="520" y="55" width="40" height="40" as="geometry" />
        </mxCell>
        <mxCell id="Mk_51du70GMUBHQP6ZVv-49" value="" style="rounded=0;whiteSpace=wrap;html=1;" parent="1" vertex="1">
          <mxGeometry x="580" y="55" width="40" height="40" as="geometry" />
        </mxCell>
        <mxCell id="Mk_51du70GMUBHQP6ZVv-50" value="" style="rounded=0;whiteSpace=wrap;html=1;" parent="1" vertex="1">
          <mxGeometry x="640" y="55" width="40" height="40" as="geometry" />
        </mxCell>
        <mxCell id="Mk_51du70GMUBHQP6ZVv-51" value="" style="rounded=0;whiteSpace=wrap;html=1;" parent="1" vertex="1">
          <mxGeometry x="700" y="55" width="40" height="40" as="geometry" />
        </mxCell>
        <mxCell id="Mk_51du70GMUBHQP6ZVv-52" value="" style="rounded=0;whiteSpace=wrap;html=1;" parent="1" vertex="1">
          <mxGeometry x="760" y="55" width="40" height="40" as="geometry" />
        </mxCell>
        <mxCell id="Mk_51du70GMUBHQP6ZVv-53" value="0" style="text;html=1;align=center;verticalAlign=middle;resizable=0;points=[];autosize=1;strokeColor=none;fillColor=none;" parent="1" vertex="1">
          <mxGeometry x="465" y="340" width="30" height="30" as="geometry" />
        </mxCell>
        <mxCell id="Mk_51du70GMUBHQP6ZVv-54" value="1" style="text;html=1;align=center;verticalAlign=middle;resizable=0;points=[];autosize=1;strokeColor=none;fillColor=none;" parent="1" vertex="1">
          <mxGeometry x="525" y="340" width="30" height="30" as="geometry" />
        </mxCell>
        <mxCell id="Mk_51du70GMUBHQP6ZVv-55" value="2" style="text;html=1;align=center;verticalAlign=middle;resizable=0;points=[];autosize=1;strokeColor=none;fillColor=none;" parent="1" vertex="1">
          <mxGeometry x="585" y="340" width="30" height="30" as="geometry" />
        </mxCell>
        <mxCell id="Mk_51du70GMUBHQP6ZVv-58" value="3" style="text;html=1;align=center;verticalAlign=middle;resizable=0;points=[];autosize=1;strokeColor=none;fillColor=none;" parent="1" vertex="1">
          <mxGeometry x="645" y="340" width="30" height="30" as="geometry" />
        </mxCell>
        <mxCell id="Mk_51du70GMUBHQP6ZVv-60" value="4" style="text;html=1;align=center;verticalAlign=middle;resizable=0;points=[];autosize=1;strokeColor=none;fillColor=none;" parent="1" vertex="1">
          <mxGeometry x="700" y="340" width="30" height="30" as="geometry" />
        </mxCell>
        <mxCell id="Mk_51du70GMUBHQP6ZVv-62" value="5" style="text;html=1;align=center;verticalAlign=middle;resizable=0;points=[];autosize=1;strokeColor=none;fillColor=none;" parent="1" vertex="1">
          <mxGeometry x="765" y="340" width="30" height="30" as="geometry" />
        </mxCell>
        <mxCell id="Mk_51du70GMUBHQP6ZVv-63" value="0" style="text;html=1;align=center;verticalAlign=middle;resizable=0;points=[];autosize=1;strokeColor=none;fillColor=none;" parent="1" vertex="1">
          <mxGeometry x="414" y="295" width="30" height="30" as="geometry" />
        </mxCell>
        <mxCell id="Mk_51du70GMUBHQP6ZVv-64" value="1" style="text;html=1;align=center;verticalAlign=middle;resizable=0;points=[];autosize=1;strokeColor=none;fillColor=none;" parent="1" vertex="1">
          <mxGeometry x="414" y="235" width="30" height="30" as="geometry" />
        </mxCell>
        <mxCell id="Mk_51du70GMUBHQP6ZVv-65" value="2" style="text;html=1;align=center;verticalAlign=middle;resizable=0;points=[];autosize=1;strokeColor=none;fillColor=none;" parent="1" vertex="1">
          <mxGeometry x="414" y="180" width="30" height="30" as="geometry" />
        </mxCell>
        <mxCell id="Mk_51du70GMUBHQP6ZVv-66" value="distance_matrix&lt;br&gt;" style="text;html=1;align=center;verticalAlign=middle;resizable=0;points=[];autosize=1;strokeColor=none;fillColor=none;" parent="1" vertex="1">
          <mxGeometry x="420" y="20" width="110" height="30" as="geometry" />
        </mxCell>
        <mxCell id="Mk_51du70GMUBHQP6ZVv-67" value="邻接矩阵前4个是受灾点&lt;br&gt;根据邻接矩阵：距离越近的越大概率优先调度" style="text;html=1;align=center;verticalAlign=middle;resizable=0;points=[];autosize=1;strokeColor=none;fillColor=none;" parent="1" vertex="1">
          <mxGeometry x="40" y="280" width="260" height="40" as="geometry" />
        </mxCell>
        <mxCell id="Mk_51du70GMUBHQP6ZVv-68" value="3" style="text;html=1;align=center;verticalAlign=middle;resizable=0;points=[];autosize=1;strokeColor=none;fillColor=none;" parent="1" vertex="1">
          <mxGeometry x="414" y="115" width="30" height="30" as="geometry" />
        </mxCell>
        <mxCell id="Mk_51du70GMUBHQP6ZVv-69" value="4" style="text;html=1;align=center;verticalAlign=middle;resizable=0;points=[];autosize=1;strokeColor=none;fillColor=none;" parent="1" vertex="1">
          <mxGeometry x="420" y="60" width="30" height="30" as="geometry" />
        </mxCell>
        <mxCell id="Mk_51du70GMUBHQP6ZVv-70" value="" style="rounded=1;whiteSpace=wrap;html=1;opacity=40;gradientColor=none;strokeColor=default;" parent="1" vertex="1">
          <mxGeometry x="444" y="100" width="250" height="240" as="geometry" />
        </mxCell>
        <mxCell id="Mk_51du70GMUBHQP6ZVv-71" value="假设路径从0开始，最大概率选1" style="text;html=1;align=center;verticalAlign=middle;resizable=0;points=[];autosize=1;strokeColor=none;fillColor=none;" parent="1" vertex="1">
          <mxGeometry x="50" y="360" width="190" height="30" as="geometry" />
        </mxCell>
        <mxCell id="Mk_51du70GMUBHQP6ZVv-72" value="下一次最大概率选择2，因为距离1最近是节点2。" style="text;html=1;align=center;verticalAlign=middle;resizable=0;points=[];autosize=1;strokeColor=none;fillColor=none;" parent="1" vertex="1">
          <mxGeometry x="5" y="400" width="280" height="30" as="geometry" />
        </mxCell>
      </root>
    </mxGraphModel>
  </diagram>
</mxfile>
